<svg xmlns="http://www.w3.org/2000/svg" width="1920" height="1080"><path d="M-103,1481L-390,1490L690,1474Z" fill="#844a40" stroke="#844a40" stroke-width="1.51"/><path d="M402,1470L-103,1481L690,1474Z" fill="#906757" stroke="#906757" stroke-width="1.51"/><path d="M-350,-395L-88,-391L703,-398Z" fill="#b43c39" stroke="#b43c39" stroke-width="1.51"/><path d="M-88,-391L455,-379L703,-398Z" fill="#c45e50" stroke="#c45e50" stroke-width="1.51"/><path d="M703,-398L969,-372L1228,-366Z" fill="#d58e8b" stroke="#d58e8b" stroke-width="1.51"/><path d="M946,1466L690,1474L1498,1489Z" fill="#909090" stroke="#909090" stroke-width="1.51"/><path d="M1213,1457L946,1466L1498,1489Z" fill="#888888" stroke="#888888" stroke-width="1.51"/><path d="M1228,-366L1489,-362L1765,-394Z" fill="#b6726f" stroke="#b6726f" stroke-width="1.51"/><path d="M703,-398L1228,-366L1765,-394Z" fill="#c5807e" stroke="#c5807e" stroke-width="1.51"/><path d="M-350,-395L703,-398L1989,-412Z" fill="#ce827b" stroke="#ce827b" stroke-width="1.51"/><path d="M703,-398L1765,-394L1989,-412Z" fill="#b1706e" stroke="#b1706e" stroke-width="1.51"/><path d="M1772,1450L1498,1489L2000,1462Z" fill="#656565" stroke="#656565" stroke-width="1.51"/><path d="M1989,-412L2027,-116L2280,-396Z" fill="#87413e" stroke="#87413e" stroke-width="1.51"/><path d="M2280,-396L2027,-116L2281,-140Z" fill="#83433d" stroke="#83433d" stroke-width="1.51"/><path d="M2027,-116L2264,117L2281,-140Z" fill="#8f5a4d" stroke="#8f5a4d" stroke-width="1.51"/><path d="M2264,117L2045,152L2297,404Z" fill="#987d70" stroke="#987d70" stroke-width="1.51"/><path d="M2045,152L1995,401L2297,404Z" fill="#a39288" stroke="#a39288" stroke-width="1.51"/><path d="M1995,401L2012,643L2297,404Z" fill="#a4a09d" stroke="#a4a09d" stroke-width="1.51"/><path d="M2281,-140L2264,117L2297,404Z" fill="#8e6a5a" stroke="#8e6a5a" stroke-width="1.51"/><path d="M2280,-396L2281,-140L2297,404Z" fill="#845145" stroke="#845145" stroke-width="1.51"/><path d="M2297,404L2012,643L2308,688Z" fill="#969696" stroke="#969696" stroke-width="1.51"/><path d="M2012,643L2039,957L2308,688Z" fill="#939393" stroke="#939393" stroke-width="1.51"/><path d="M2308,688L2039,957L2313,911Z" fill="#818181" stroke="#818181" stroke-width="1.51"/><path d="M2039,957L2259,1199L2313,911Z" fill="#737373" stroke="#737373" stroke-width="1.51"/><path d="M2259,1199L2264,1435L2313,911Z" fill="#595959" stroke="#595959" stroke-width="1.51"/><path d="M2039,957L2013,1195L2259,1199Z" fill="#727272" stroke="#727272" stroke-width="1.51"/><path d="M2259,1199L2013,1195L2264,1435Z" fill="#575757" stroke="#575757" stroke-width="1.51"/><path d="M2027,-116L2045,152L2264,117Z" fill="#9d7061" stroke="#9d7061" stroke-width="1.51"/><path d="M2013,1195L2000,1462L2264,1435Z" fill="#535353" stroke="#535353" stroke-width="1.51"/><path d="M1774,110L1761,393L1995,401Z" fill="#c0aca1" stroke="#c0aca1" stroke-width="1.51"/><path d="M1743,695L1786,923L2012,643Z" fill="#b1b1b1" stroke="#b1b1b1" stroke-width="1.51"/><path d="M1995,401L1761,393L2012,643Z" fill="#b8b3b0" stroke="#b8b3b0" stroke-width="1.51"/><path d="M1786,923L1737,1193L2013,1195Z" fill="#8e8e8e" stroke="#8e8e8e" stroke-width="1.51"/><path d="M1772,1450L2000,1462L2013,1195Z" fill="#636363" stroke="#636363" stroke-width="1.51"/><path d="M1737,1193L1772,1450L2013,1195Z" fill="#787878" stroke="#787878" stroke-width="1.51"/><path d="M1747,-120L1774,110L2027,-116Z" fill="#b57d6f" stroke="#b57d6f" stroke-width="1.51"/><path d="M1989,-412L1765,-394L2027,-116Z" fill="#9a524e" stroke="#9a524e" stroke-width="1.51"/><path d="M1765,-394L1747,-120L2027,-116Z" fill="#ab675f" stroke="#ab675f" stroke-width="1.51"/><path d="M1786,923L2013,1195L2039,957Z" fill="#8d8d8d" stroke="#8d8d8d" stroke-width="1.51"/><path d="M2012,643L1786,923L2039,957Z" fill="#9f9f9f" stroke="#9f9f9f" stroke-width="1.51"/><path d="M2027,-116L1774,110L2045,152Z" fill="#af8171" stroke="#af8171" stroke-width="1.51"/><path d="M1774,110L1995,401L2045,152Z" fill="#b5988b" stroke="#b5988b" stroke-width="1.51"/><path d="M1761,393L1743,695L2012,643Z" fill="#bebebe" stroke="#bebebe" stroke-width="1.51"/><path d="M-88,-391L196,-364L455,-379Z" fill="#bd4a42" stroke="#bd4a42" stroke-width="1.51"/><path d="M1461,926L1490,1181L1737,1193Z" fill="#a7a7a7" stroke="#a7a7a7" stroke-width="1.51"/><path d="M1490,1181L1498,1489L1737,1193Z" fill="#8d8d8d" stroke="#8d8d8d" stroke-width="1.51"/><path d="M1501,405L1469,677L1743,695Z" fill="#d6d6d6" stroke="#d6d6d6" stroke-width="1.51"/><path d="M1489,-362L1461,-138L1747,-120Z" fill="#c57f76" stroke="#c57f76" stroke-width="1.51"/><path d="M1501,405L1743,695L1761,393Z" fill="#d1cdcb" stroke="#d1cdcb" stroke-width="1.51"/><path d="M1491,149L1501,405L1761,393Z" fill="#d8c5bb" stroke="#d8c5bb" stroke-width="1.51"/><path d="M1489,-362L1747,-120L1765,-394Z" fill="#b66c66" stroke="#b66c66" stroke-width="1.51"/><path d="M1737,1193L1498,1489L1772,1450Z" fill="#797979" stroke="#797979" stroke-width="1.51"/><path d="M1491,149L1761,393L1774,110Z" fill="#cfb1a3" stroke="#cfb1a3" stroke-width="1.51"/><path d="M1747,-120L1491,149L1774,110Z" fill="#cb9a8a" stroke="#cb9a8a" stroke-width="1.51"/><path d="M1743,695L1461,926L1786,923Z" fill="#bababa" stroke="#bababa" stroke-width="1.51"/><path d="M1461,926L1737,1193L1786,923Z" fill="#a9a9a9" stroke="#a9a9a9" stroke-width="1.51"/><path d="M1469,677L1461,926L1743,695Z" fill="#cacaca" stroke="#cacaca" stroke-width="1.51"/><path d="M1461,-138L1491,149L1747,-120Z" fill="#d09688" stroke="#d09688" stroke-width="1.51"/><path d="M1227,687L1231,941L1461,926Z" fill="#d3d3d3" stroke="#d3d3d3" stroke-width="1.51"/><path d="M1227,687L1461,926L1469,677Z" fill="#d6d6d6" stroke="#d6d6d6" stroke-width="1.51"/><path d="M1226,391L1227,687L1469,677Z" fill="#e8e8e8" stroke="#e8e8e8" stroke-width="1.51"/><path d="M1228,-366L1461,-138L1489,-362Z" fill="#cb7f79" stroke="#cb7f79" stroke-width="1.51"/><path d="M1223,1194L1213,1457L1490,1181Z" fill="#a0a0a0" stroke="#a0a0a0" stroke-width="1.51"/><path d="M1461,926L1231,941L1490,1181Z" fill="#bdbdbd" stroke="#bdbdbd" stroke-width="1.51"/><path d="M1231,941L1223,1194L1490,1181Z" fill="#b7b7b7" stroke="#b7b7b7" stroke-width="1.51"/><path d="M1461,-138L1214,116L1491,149Z" fill="#e1ae9e" stroke="#e1ae9e" stroke-width="1.51"/><path d="M1214,116L1226,391L1491,149Z" fill="#ebccbd" stroke="#ebccbd" stroke-width="1.51"/><path d="M1490,1181L1213,1457L1498,1489Z" fill="#8b8b8b" stroke="#8b8b8b" stroke-width="1.51"/><path d="M1491,149L1226,391L1501,405Z" fill="#e5d2c8" stroke="#e5d2c8" stroke-width="1.51"/><path d="M1226,391L1469,677L1501,405Z" fill="#e6e2df" stroke="#e6e2df" stroke-width="1.51"/><path d="M1228,-366L1197,-153L1461,-138Z" fill="#d78f86" stroke="#d78f86" stroke-width="1.51"/><path d="M1197,-153L1214,116L1461,-138Z" fill="#e2a596" stroke="#e2a596" stroke-width="1.51"/><path d="M969,-372L964,-148L1197,-153Z" fill="#e59b92" stroke="#e59b92" stroke-width="1.51"/><path d="M978,1181L946,1466L1213,1457Z" fill="#a0a0a0" stroke="#a0a0a0" stroke-width="1.51"/><path d="M946,165L982,383L1214,116Z" fill="#fadbcc" stroke="#fadbcc" stroke-width="1.51"/><path d="M1197,-153L964,-148L1214,116Z" fill="#ebad9e" stroke="#ebad9e" stroke-width="1.51"/><path d="M964,-148L946,165L1214,116Z" fill="#f6c2b1" stroke="#f6c2b1" stroke-width="1.51"/><path d="M978,1181L1213,1457L1223,1194Z" fill="#a9a9a9" stroke="#a9a9a9" stroke-width="1.51"/><path d="M1214,116L982,383L1226,391Z" fill="#f5e0d4" stroke="#f5e0d4" stroke-width="1.51"/><path d="M1226,391L982,383L1227,687Z" fill="#f5f0ee" stroke="#f5f0ee" stroke-width="1.51"/><path d="M982,383L945,676L1227,687Z" fill="#f7f7f7" stroke="#f7f7f7" stroke-width="1.51"/><path d="M945,676L963,941L1227,687Z" fill="#e9e9e9" stroke="#e9e9e9" stroke-width="1.51"/><path d="M969,-372L1197,-153L1228,-366Z" fill="#db8d87" stroke="#db8d87" stroke-width="1.51"/><path d="M978,1181L1223,1194L1231,941Z" fill="#c1c1c1" stroke="#c1c1c1" stroke-width="1.51"/><path d="M963,941L978,1181L1231,941Z" fill="#d0d0d0" stroke="#d0d0d0" stroke-width="1.51"/><path d="M1227,687L963,941L1231,941Z" fill="#dcdcdc" stroke="#dcdcdc" stroke-width="1.51"/><path d="M151,1444L-103,1481L402,1470Z" fill="#8a5649" stroke="#8a5649" stroke-width="1.51"/><path d="M696,430L722,698L945,676Z" fill="#fbf0ea" stroke="#fbf0ea" stroke-width="1.51"/><path d="M713,1229L690,1474L946,1466Z" fill="#a29792" stroke="#a29792" stroke-width="1.51"/><path d="M676,-152L694,169L946,165Z" fill="#f8bda6" stroke="#f8bda6" stroke-width="1.51"/><path d="M945,676L722,698L963,941Z" fill="#ede8e5" stroke="#ede8e5" stroke-width="1.51"/><path d="M722,698L709,941L963,941Z" fill="#e5dbd6" stroke="#e5dbd6" stroke-width="1.51"/><path d="M676,-152L946,165L964,-148Z" fill="#f4b2a0" stroke="#f4b2a0" stroke-width="1.51"/><path d="M703,-398L676,-152L964,-148Z" fill="#e69385" stroke="#e69385" stroke-width="1.51"/><path d="M703,-398L964,-148L969,-372Z" fill="#e28f87" stroke="#e28f87" stroke-width="1.51"/><path d="M713,1229L946,1466L978,1181Z" fill="#b0aba8" stroke="#b0aba8" stroke-width="1.51"/><path d="M963,941L709,941L978,1181Z" fill="#d5d0cd" stroke="#d5d0cd" stroke-width="1.51"/><path d="M709,941L713,1229L978,1181Z" fill="#c9bfba" stroke="#c9bfba" stroke-width="1.51"/><path d="M696,430L945,676L982,383Z" fill="#fff6f0" stroke="#fff6f0" stroke-width="1.51"/><path d="M946,165L694,169L982,383Z" fill="#fedccc" stroke="#fedccc" stroke-width="1.51"/><path d="M694,169L696,430L982,383Z" fill="#fee2d2" stroke="#fee2d2" stroke-width="1.51"/><path d="M407,-123L421,136L676,-152Z" fill="#ed977b" stroke="#ed977b" stroke-width="1.51"/><path d="M676,-152L421,136L694,169Z" fill="#f5af93" stroke="#f5af93" stroke-width="1.51"/><path d="M694,169L430,376L696,430Z" fill="#fdd5bf" stroke="#fdd5bf" stroke-width="1.51"/><path d="M430,376L417,683L696,430Z" fill="#fedbca" stroke="#fedbca" stroke-width="1.51"/><path d="M455,-379L676,-152L703,-398Z" fill="#dc7d6e" stroke="#dc7d6e" stroke-width="1.51"/><path d="M416,953L461,1222L709,941Z" fill="#d2b5a7" stroke="#d2b5a7" stroke-width="1.51"/><path d="M417,683L416,953L709,941Z" fill="#e5c6b7" stroke="#e5c6b7" stroke-width="1.51"/><path d="M709,941L461,1222L713,1229Z" fill="#c6b2a7" stroke="#c6b2a7" stroke-width="1.51"/><path d="M461,1222L690,1474L713,1229Z" fill="#ac988e" stroke="#ac988e" stroke-width="1.51"/><path d="M417,683L709,941L722,698Z" fill="#edd7cb" stroke="#edd7cb" stroke-width="1.51"/><path d="M696,430L417,683L722,698Z" fill="#fae3d7" stroke="#fae3d7" stroke-width="1.51"/><path d="M461,1222L402,1470L690,1474Z" fill="#a08477" stroke="#a08477" stroke-width="1.51"/><path d="M421,136L430,376L694,169Z" fill="#fac0a4" stroke="#fac0a4" stroke-width="1.51"/><path d="M455,-379L407,-123L676,-152Z" fill="#e0806b" stroke="#e0806b" stroke-width="1.51"/><path d="M170,906L416,953L417,683Z" fill="#e3b5a4" stroke="#e3b5a4" stroke-width="1.51"/><path d="M172,436L158,674L417,683Z" fill="#f5beae" stroke="#f5beae" stroke-width="1.51"/><path d="M407,-123L190,-107L421,136Z" fill="#e8896c" stroke="#e8896c" stroke-width="1.51"/><path d="M421,136L164,137L430,376Z" fill="#f5ae8e" stroke="#f5ae8e" stroke-width="1.51"/><path d="M172,436L417,683L430,376Z" fill="#fccab6" stroke="#fccab6" stroke-width="1.51"/><path d="M196,-364L407,-123L455,-379Z" fill="#d56654" stroke="#d56654" stroke-width="1.51"/><path d="M416,953L186,1203L461,1222Z" fill="#c59a89" stroke="#c59a89" stroke-width="1.51"/><path d="M186,1203L402,1470L461,1222Z" fill="#ab8271" stroke="#ab8271" stroke-width="1.51"/><path d="M186,1203L151,1444L402,1470Z" fill="#9c6c5e" stroke="#9c6c5e" stroke-width="1.51"/><path d="M190,-107L164,137L421,136Z" fill="#eb8e6f" stroke="#eb8e6f" stroke-width="1.51"/><path d="M164,137L172,436L430,376Z" fill="#f4b196" stroke="#f4b196" stroke-width="1.51"/><path d="M196,-364L190,-107L407,-123Z" fill="#d86854" stroke="#d86854" stroke-width="1.51"/><path d="M170,906L186,1203L416,953Z" fill="#ce9c8c" stroke="#ce9c8c" stroke-width="1.51"/><path d="M158,674L170,906L417,683Z" fill="#e9b4a4" stroke="#e9b4a4" stroke-width="1.51"/><path d="M-71,422L-102,679L158,674Z" fill="#eaa398" stroke="#eaa398" stroke-width="1.51"/><path d="M-95,146L-71,422L164,137Z" fill="#e68a74" stroke="#e68a74" stroke-width="1.51"/><path d="M-95,-110L-95,146L164,137Z" fill="#dc705a" stroke="#dc705a" stroke-width="1.51"/><path d="M-112,928L-86,1206L170,906Z" fill="#c48076" stroke="#c48076" stroke-width="1.51"/><path d="M158,674L-102,679L170,906Z" fill="#e2a093" stroke="#e2a093" stroke-width="1.51"/><path d="M-102,679L-112,928L170,906Z" fill="#d59086" stroke="#d59086" stroke-width="1.51"/><path d="M164,137L-71,422L172,436Z" fill="#ed9f88" stroke="#ed9f88" stroke-width="1.51"/><path d="M-71,422L158,674L172,436Z" fill="#f2ad9e" stroke="#f2ad9e" stroke-width="1.51"/><path d="M170,906L-86,1206L186,1203Z" fill="#bd7f73" stroke="#bd7f73" stroke-width="1.51"/><path d="M-86,1206L151,1444L186,1203Z" fill="#a3675b" stroke="#a3675b" stroke-width="1.51"/><path d="M-95,-110L164,137L190,-107Z" fill="#db6c55" stroke="#db6c55" stroke-width="1.51"/><path d="M-95,-110L190,-107L196,-364Z" fill="#cf5446" stroke="#cf5446" stroke-width="1.51"/><path d="M-88,-391L-95,-110L196,-364Z" fill="#c13b38" stroke="#c13b38" stroke-width="1.51"/><path d="M-86,1206L-103,1481L151,1444Z" fill="#905249" stroke="#905249" stroke-width="1.51"/><path d="M-355,918L-356,1174L-112,928Z" fill="#b16b68" stroke="#b16b68" stroke-width="1.51"/><path d="M-356,1174L-390,1490L-103,1481Z" fill="#7b3c3b" stroke="#7b3c3b" stroke-width="1.51"/><path d="M-355,918L-112,928L-102,679Z" fill="#cc807a" stroke="#cc807a" stroke-width="1.51"/><path d="M-349,-112L-393,134L-95,146Z" fill="#c6594c" stroke="#c6594c" stroke-width="1.51"/><path d="M-393,134L-365,410L-95,146Z" fill="#cf7164" stroke="#cf7164" stroke-width="1.51"/><path d="M-349,-112L-95,146L-95,-110Z" fill="#cc5145" stroke="#cc5145" stroke-width="1.51"/><path d="M-349,-112L-95,-110L-88,-391Z" fill="#bd3234" stroke="#bd3234" stroke-width="1.51"/><path d="M-350,-395L-349,-112L-88,-391Z" fill="#ab182b" stroke="#ab182b" stroke-width="1.51"/><path d="M-356,1174L-103,1481L-86,1206Z" fill="#954f4a" stroke="#954f4a" stroke-width="1.51"/><path d="M-112,928L-356,1174L-86,1206Z" fill="#af6660" stroke="#af6660" stroke-width="1.51"/><path d="M-357,641L-102,679L-71,422Z" fill="#e2948d" stroke="#e2948d" stroke-width="1.51"/><path d="M-365,410L-357,641L-71,422Z" fill="#da8d86" stroke="#da8d86" stroke-width="1.51"/><path d="M-95,146L-365,410L-71,422Z" fill="#e08576" stroke="#e08576" stroke-width="1.51"/><path d="M-357,641L-355,918L-102,679Z" fill="#cb827e" stroke="#cb827e" stroke-width="1.51"/><path d="M-350,-395L-393,134L-349,-112Z" fill="#ac3536" stroke="#ac3536" stroke-width="1.51"/><path d="M-357,641L-393,134L-355,918Z" fill="#c98987" stroke="#c98987" stroke-width="1.51"/><path d="M-393,134L-390,1490L-355,918Z" fill="#b27473" stroke="#b27473" stroke-width="1.51"/><path d="M-390,1490L-356,1174L-355,918Z" fill="#8c5151" stroke="#8c5151" stroke-width="1.51"/><path d="M-365,410L-393,134L-357,641Z" fill="#c87e77" stroke="#c87e77" stroke-width="1.51"/></svg>