<svg xmlns="http://www.w3.org/2000/svg" width="1920" height="1080"><path d="M-103,1481L-390,1490L690,1474Z" fill="#565555" stroke="#565555" stroke-width="1.51"/><path d="M402,1470L-103,1481L690,1474Z" fill="#5d5c5c" stroke="#5d5c5c" stroke-width="1.51"/><path d="M-350,-395L-88,-391L703,-398Z" fill="#1a1818" stroke="#1a1818" stroke-width="1.51"/><path d="M-88,-391L455,-379L703,-398Z" fill="#1f1e1e" stroke="#1f1e1e" stroke-width="1.51"/><path d="M703,-398L969,-372L1228,-366Z" fill="#2d2c2c" stroke="#2d2c2c" stroke-width="1.51"/><path d="M946,1466L690,1474L1498,1489Z" fill="#6f6f6f" stroke="#6f6f6f" stroke-width="1.51"/><path d="M1213,1457L946,1466L1498,1489Z" fill="#747474" stroke="#747474" stroke-width="1.51"/><path d="M1228,-366L1489,-362L1765,-394Z" fill="#3a3939" stroke="#3a3939" stroke-width="1.51"/><path d="M703,-398L1228,-366L1765,-394Z" fill="#333232" stroke="#333232" stroke-width="1.51"/><path d="M-350,-395L703,-398L1989,-412Z" fill="#282727" stroke="#282727" stroke-width="1.51"/><path d="M703,-398L1765,-394L1989,-412Z" fill="#393838" stroke="#393838" stroke-width="1.51"/><path d="M1772,1450L1498,1489L2000,1462Z" fill="#828282" stroke="#828282" stroke-width="1.51"/><path d="M1989,-412L2027,-116L2280,-396Z" fill="#4b4a4a" stroke="#4b4a4a" stroke-width="1.51"/><path d="M2280,-396L2027,-116L2281,-140Z" fill="#515050" stroke="#515050" stroke-width="1.51"/><path d="M2027,-116L2264,117L2281,-140Z" fill="#575656" stroke="#575656" stroke-width="1.51"/><path d="M2264,117L2045,152L2297,404Z" fill="#606060" stroke="#606060" stroke-width="1.51"/><path d="M2045,152L1995,401L2297,404Z" fill="#616161" stroke="#616161" stroke-width="1.51"/><path d="M1995,401L2012,643L2297,404Z" fill="#676767" stroke="#676767" stroke-width="1.51"/><path d="M2281,-140L2264,117L2297,404Z" fill="#5f5f5f" stroke="#5f5f5f" stroke-width="1.51"/><path d="M2280,-396L2281,-140L2297,404Z" fill="#595858" stroke="#595858" stroke-width="1.51"/><path d="M2297,404L2012,643L2308,688Z" fill="#6d6d6d" stroke="#6d6d6d" stroke-width="1.51"/><path d="M2012,643L2039,957L2308,688Z" fill="#727272" stroke="#727272" stroke-width="1.51"/><path d="M2308,688L2039,957L2313,911Z" fill="#787878" stroke="#787878" stroke-width="1.51"/><path d="M2039,957L2259,1199L2313,911Z" fill="#7e7e7e" stroke="#7e7e7e" stroke-width="1.51"/><path d="M2259,1199L2264,1435L2313,911Z" fill="#868686" stroke="#868686" stroke-width="1.51"/><path d="M2039,957L2013,1195L2259,1199Z" fill="#7f7f7f" stroke="#7f7f7f" stroke-width="1.51"/><path d="M2259,1199L2013,1195L2264,1435Z" fill="#878787" stroke="#878787" stroke-width="1.51"/><path d="M2027,-116L2045,152L2264,117Z" fill="#585757" stroke="#585757" stroke-width="1.51"/><path d="M2013,1195L2000,1462L2264,1435Z" fill="#888888" stroke="#888888" stroke-width="1.51"/><path d="M1774,110L1761,393L1995,401Z" fill="#5a5959" stroke="#5a5959" stroke-width="1.51"/><path d="M1743,695L1786,923L2012,643Z" fill="#696969" stroke="#696969" stroke-width="1.51"/><path d="M1995,401L1761,393L2012,643Z" fill="#616161" stroke="#616161" stroke-width="1.51"/><path d="M1786,923L1737,1193L2013,1195Z" fill="#777777" stroke="#777777" stroke-width="1.51"/><path d="M1772,1450L2000,1462L2013,1195Z" fill="#838383" stroke="#838383" stroke-width="1.51"/><path d="M1737,1193L1772,1450L2013,1195Z" fill="#7d7d7d" stroke="#7d7d7d" stroke-width="1.51"/><path d="M1747,-120L1774,110L2027,-116Z" fill="#4e4d4d" stroke="#4e4d4d" stroke-width="1.51"/><path d="M1989,-412L1765,-394L2027,-116Z" fill="#474646" stroke="#474646" stroke-width="1.51"/><path d="M1765,-394L1747,-120L2027,-116Z" fill="#484747" stroke="#484747" stroke-width="1.51"/><path d="M1786,923L2013,1195L2039,957Z" fill="#777777" stroke="#777777" stroke-width="1.51"/><path d="M2012,643L1786,923L2039,957Z" fill="#707070" stroke="#707070" stroke-width="1.51"/><path d="M2027,-116L1774,110L2045,152Z" fill="#545353" stroke="#545353" stroke-width="1.51"/><path d="M1774,110L1995,401L2045,152Z" fill="#595959" stroke="#595959" stroke-width="1.51"/><path d="M1761,393L1743,695L2012,643Z" fill="#636363" stroke="#636363" stroke-width="1.51"/><path d="M-88,-391L196,-364L455,-379Z" fill="#1d1b1b" stroke="#1d1b1b" stroke-width="1.51"/><path d="M1461,926L1490,1181L1737,1193Z" fill="#6e6e6e" stroke="#6e6e6e" stroke-width="1.51"/><path d="M1490,1181L1498,1489L1737,1193Z" fill="#767676" stroke="#767676" stroke-width="1.51"/><path d="M1501,405L1469,677L1743,695Z" fill="#5c5c5c" stroke="#5c5c5c" stroke-width="1.51"/><path d="M1489,-362L1461,-138L1747,-120Z" fill="#414040" stroke="#414040" stroke-width="1.51"/><path d="M1501,405L1743,695L1761,393Z" fill="#5b5b5b" stroke="#5b5b5b" stroke-width="1.51"/><path d="M1491,149L1501,405L1761,393Z" fill="#525252" stroke="#525252" stroke-width="1.51"/><path d="M1489,-362L1747,-120L1765,-394Z" fill="#414040" stroke="#414040" stroke-width="1.51"/><path d="M1737,1193L1498,1489L1772,1450Z" fill="#7c7c7c" stroke="#7c7c7c" stroke-width="1.51"/><path d="M1491,149L1761,393L1774,110Z" fill="#525252" stroke="#525252" stroke-width="1.51"/><path d="M1747,-120L1491,149L1774,110Z" fill="#4c4c4c" stroke="#4c4c4c" stroke-width="1.51"/><path d="M1743,695L1461,926L1786,923Z" fill="#686868" stroke="#686868" stroke-width="1.51"/><path d="M1461,926L1737,1193L1786,923Z" fill="#6e6e6e" stroke="#6e6e6e" stroke-width="1.51"/><path d="M1469,677L1461,926L1743,695Z" fill="#626262" stroke="#626262" stroke-width="1.51"/><path d="M1461,-138L1491,149L1747,-120Z" fill="#474646" stroke="#474646" stroke-width="1.51"/><path d="M1227,687L1231,941L1461,926Z" fill="#5e5e5e" stroke="#5e5e5e" stroke-width="1.51"/><path d="M1227,687L1461,926L1469,677Z" fill="#5d5d5d" stroke="#5d5d5d" stroke-width="1.51"/><path d="M1226,391L1227,687L1469,677Z" fill="#545454" stroke="#545454" stroke-width="1.51"/><path d="M1228,-366L1461,-138L1489,-362Z" fill="#3a3939" stroke="#3a3939" stroke-width="1.51"/><path d="M1223,1194L1213,1457L1490,1181Z" fill="#6e6e6e" stroke="#6e6e6e" stroke-width="1.51"/><path d="M1461,926L1231,941L1490,1181Z" fill="#676767" stroke="#676767" stroke-width="1.51"/><path d="M1231,941L1223,1194L1490,1181Z" fill="#686868" stroke="#686868" stroke-width="1.51"/><path d="M1461,-138L1214,116L1491,149Z" fill="#454444" stroke="#454444" stroke-width="1.51"/><path d="M1214,116L1226,391L1491,149Z" fill="#484848" stroke="#484848" stroke-width="1.51"/><path d="M1490,1181L1213,1457L1498,1489Z" fill="#757575" stroke="#757575" stroke-width="1.51"/><path d="M1491,149L1226,391L1501,405Z" fill="#4e4e4e" stroke="#4e4e4e" stroke-width="1.51"/><path d="M1226,391L1469,677L1501,405Z" fill="#545454" stroke="#545454" stroke-width="1.51"/><path d="M1228,-366L1197,-153L1461,-138Z" fill="#3a3939" stroke="#3a3939" stroke-width="1.51"/><path d="M1197,-153L1214,116L1461,-138Z" fill="#3f3e3e" stroke="#3f3e3e" stroke-width="1.51"/><path d="M969,-372L964,-148L1197,-153Z" fill="#343232" stroke="#343232" stroke-width="1.51"/><path d="M978,1181L946,1466L1213,1457Z" fill="#6a6a6a" stroke="#6a6a6a" stroke-width="1.51"/><path d="M946,165L982,383L1214,116Z" fill="#424242" stroke="#424242" stroke-width="1.51"/><path d="M1197,-153L964,-148L1214,116Z" fill="#3b3a3a" stroke="#3b3a3a" stroke-width="1.51"/><path d="M964,-148L946,165L1214,116Z" fill="#3c3c3c" stroke="#3c3c3c" stroke-width="1.51"/><path d="M978,1181L1213,1457L1223,1194Z" fill="#6a6a6a" stroke="#6a6a6a" stroke-width="1.51"/><path d="M1214,116L982,383L1226,391Z" fill="#464646" stroke="#464646" stroke-width="1.51"/><path d="M1226,391L982,383L1227,687Z" fill="#4d4d4d" stroke="#4d4d4d" stroke-width="1.51"/><path d="M982,383L945,676L1227,687Z" fill="#4e4e4e" stroke="#4e4e4e" stroke-width="1.51"/><path d="M945,676L963,941L1227,687Z" fill="#545454" stroke="#545454" stroke-width="1.51"/><path d="M969,-372L1197,-153L1228,-366Z" fill="#343333" stroke="#343333" stroke-width="1.51"/><path d="M978,1181L1223,1194L1231,941Z" fill="#646464" stroke="#646464" stroke-width="1.51"/><path d="M963,941L978,1181L1231,941Z" fill="#5e5e5e" stroke="#5e5e5e" stroke-width="1.51"/><path d="M1227,687L963,941L1231,941Z" fill="#5a5a5a" stroke="#5a5a5a" stroke-width="1.51"/><path d="M151,1444L-103,1481L402,1470Z" fill="#585757" stroke="#585757" stroke-width="1.51"/><path d="M696,430L722,698L945,676Z" fill="#484848" stroke="#484848" stroke-width="1.51"/><path d="M713,1229L690,1474L946,1466Z" fill="#656464" stroke="#656464" stroke-width="1.51"/><path d="M676,-152L694,169L946,165Z" fill="#363636" stroke="#363636" stroke-width="1.51"/><path d="M945,676L722,698L963,941Z" fill="#505050" stroke="#505050" stroke-width="1.51"/><path d="M722,698L709,941L963,941Z" fill="#515151" stroke="#515151" stroke-width="1.51"/><path d="M676,-152L946,165L964,-148Z" fill="#353434" stroke="#353434" stroke-width="1.51"/><path d="M703,-398L676,-152L964,-148Z" fill="#2d2c2c" stroke="#2d2c2c" stroke-width="1.51"/><path d="M703,-398L964,-148L969,-372Z" fill="#2d2d2d" stroke="#2d2d2d" stroke-width="1.51"/><path d="M713,1229L946,1466L978,1181Z" fill="#636363" stroke="#636363" stroke-width="1.51"/><path d="M963,941L709,941L978,1181Z" fill="#595959" stroke="#595959" stroke-width="1.51"/><path d="M709,941L713,1229L978,1181Z" fill="#5b5b5b" stroke="#5b5b5b" stroke-width="1.51"/><path d="M696,430L945,676L982,383Z" fill="#464646" stroke="#464646" stroke-width="1.51"/><path d="M946,165L694,169L982,383Z" fill="#3e3e3e" stroke="#3e3e3e" stroke-width="1.51"/><path d="M694,169L696,430L982,383Z" fill="#3f3f3f" stroke="#3f3f3f" stroke-width="1.51"/><path d="M407,-123L421,136L676,-152Z" fill="#2d2c2c" stroke="#2d2c2c" stroke-width="1.51"/><path d="M676,-152L421,136L694,169Z" fill="#323131" stroke="#323131" stroke-width="1.51"/><path d="M694,169L430,376L696,430Z" fill="#3a3a3a" stroke="#3a3a3a" stroke-width="1.51"/><path d="M430,376L417,683L696,430Z" fill="#3e3d3d" stroke="#3e3d3d" stroke-width="1.51"/><path d="M455,-379L676,-152L703,-398Z" fill="#272626" stroke="#272626" stroke-width="1.51"/><path d="M416,953L461,1222L709,941Z" fill="#525151" stroke="#525151" stroke-width="1.51"/><path d="M417,683L416,953L709,941Z" fill="#4a4a4a" stroke="#4a4a4a" stroke-width="1.51"/><path d="M709,941L461,1222L713,1229Z" fill="#575757" stroke="#575757" stroke-width="1.51"/><path d="M461,1222L690,1474L713,1229Z" fill="#5e5e5e" stroke="#5e5e5e" stroke-width="1.51"/><path d="M417,683L709,941L722,698Z" fill="#4a4a4a" stroke="#4a4a4a" stroke-width="1.51"/><path d="M696,430L417,683L722,698Z" fill="#444444" stroke="#444444" stroke-width="1.51"/><path d="M461,1222L402,1470L690,1474Z" fill="#5e5e5e" stroke="#5e5e5e" stroke-width="1.51"/><path d="M421,136L430,376L694,169Z" fill="#363535" stroke="#363535" stroke-width="1.51"/><path d="M455,-379L407,-123L676,-152Z" fill="#282727" stroke="#282727" stroke-width="1.51"/><path d="M170,906L416,953L417,683Z" fill="#464545" stroke="#464545" stroke-width="1.51"/><path d="M172,436L158,674L417,683Z" fill="#3b3a3a" stroke="#3b3a3a" stroke-width="1.51"/><path d="M407,-123L190,-107L421,136Z" fill="#292828" stroke="#292828" stroke-width="1.51"/><path d="M421,136L164,137L430,376Z" fill="#313030" stroke="#313030" stroke-width="1.51"/><path d="M172,436L417,683L430,376Z" fill="#3a3939" stroke="#3a3939" stroke-width="1.51"/><path d="M196,-364L407,-123L455,-379Z" fill="#222121" stroke="#222121" stroke-width="1.51"/><path d="M416,953L186,1203L461,1222Z" fill="#505050" stroke="#505050" stroke-width="1.51"/><path d="M186,1203L402,1470L461,1222Z" fill="#575656" stroke="#575656" stroke-width="1.51"/><path d="M186,1203L151,1444L402,1470Z" fill="#575656" stroke="#575656" stroke-width="1.51"/><path d="M190,-107L164,137L421,136Z" fill="#2a2929" stroke="#2a2929" stroke-width="1.51"/><path d="M164,137L172,436L430,376Z" fill="#333232" stroke="#333232" stroke-width="1.51"/><path d="M196,-364L190,-107L407,-123Z" fill="#232222" stroke="#232222" stroke-width="1.51"/><path d="M170,906L186,1203L416,953Z" fill="#4a4a4a" stroke="#4a4a4a" stroke-width="1.51"/><path d="M158,674L170,906L417,683Z" fill="#414040" stroke="#414040" stroke-width="1.51"/><path d="M-71,422L-102,679L158,674Z" fill="#363535" stroke="#363535" stroke-width="1.51"/><path d="M-95,146L-71,422L164,137Z" fill="#2a2929" stroke="#2a2929" stroke-width="1.51"/><path d="M-95,-110L-95,146L164,137Z" fill="#242323" stroke="#242323" stroke-width="1.51"/><path d="M-112,928L-86,1206L170,906Z" fill="#444343" stroke="#444343" stroke-width="1.51"/><path d="M158,674L-102,679L170,906Z" fill="#3c3c3c" stroke="#3c3c3c" stroke-width="1.51"/><path d="M-102,679L-112,928L170,906Z" fill="#3e3d3d" stroke="#3e3d3d" stroke-width="1.51"/><path d="M164,137L-71,422L172,436Z" fill="#2f2e2e" stroke="#2f2e2e" stroke-width="1.51"/><path d="M-71,422L158,674L172,436Z" fill="#343434" stroke="#343434" stroke-width="1.51"/><path d="M170,906L-86,1206L186,1203Z" fill="#4a4848" stroke="#4a4848" stroke-width="1.51"/><path d="M-86,1206L151,1444L186,1203Z" fill="#4f4f4f" stroke="#4f4f4f" stroke-width="1.51"/><path d="M-95,-110L164,137L190,-107Z" fill="#242323" stroke="#242323" stroke-width="1.51"/><path d="M-95,-110L190,-107L196,-364Z" fill="#201e1e" stroke="#201e1e" stroke-width="1.51"/><path d="M-88,-391L-95,-110L196,-364Z" fill="#1b1919" stroke="#1b1919" stroke-width="1.51"/><path d="M-86,1206L-103,1481L151,1444Z" fill="#505050" stroke="#505050" stroke-width="1.51"/><path d="M-355,918L-356,1174L-112,928Z" fill="#3d3c3c" stroke="#3d3c3c" stroke-width="1.51"/><path d="M-356,1174L-390,1490L-103,1481Z" fill="#4a4949" stroke="#4a4949" stroke-width="1.51"/><path d="M-355,918L-112,928L-102,679Z" fill="#3a3939" stroke="#3a3939" stroke-width="1.51"/><path d="M-349,-112L-393,134L-95,146Z" fill="#1f1e1e" stroke="#1f1e1e" stroke-width="1.51"/><path d="M-393,134L-365,410L-95,146Z" fill="#242222" stroke="#242222" stroke-width="1.51"/><path d="M-349,-112L-95,146L-95,-110Z" fill="#1f1d1d" stroke="#1f1d1d" stroke-width="1.51"/><path d="M-349,-112L-95,-110L-88,-391Z" fill="#191919" stroke="#191919" stroke-width="1.51"/><path d="M-350,-395L-349,-112L-88,-391Z" fill="#161414" stroke="#161414" stroke-width="1.51"/><path d="M-356,1174L-103,1481L-86,1206Z" fill="#494848" stroke="#494848" stroke-width="1.51"/><path d="M-112,928L-356,1174L-86,1206Z" fill="#434242" stroke="#434242" stroke-width="1.51"/><path d="M-357,641L-102,679L-71,422Z" fill="#313030" stroke="#313030" stroke-width="1.51"/><path d="M-365,410L-357,641L-71,422Z" fill="#2c2c2c" stroke="#2c2c2c" stroke-width="1.51"/><path d="M-95,146L-365,410L-71,422Z" fill="#292828" stroke="#292828" stroke-width="1.51"/><path d="M-357,641L-355,918L-102,679Z" fill="#343333" stroke="#343333" stroke-width="1.51"/><path d="M-350,-395L-393,134L-349,-112Z" fill="#181616" stroke="#181616" stroke-width="1.51"/><path d="M-357,641L-393,134L-355,918Z" fill="#2c2b2b" stroke="#2c2b2b" stroke-width="1.51"/><path d="M-393,134L-390,1490L-355,918Z" fill="#353434" stroke="#353434" stroke-width="1.51"/><path d="M-390,1490L-356,1174L-355,918Z" fill="#424141" stroke="#424141" stroke-width="1.51"/><path d="M-365,410L-393,134L-357,641Z" fill="#272626" stroke="#272626" stroke-width="1.51"/></svg>